<mxfile host="app.diagrams.net" agent="Mozilla/5.0 (Windows NT 10.0; Win64; x64) AppleWebKit/537.36 (KHTML, like Gecko) Chrome/137.0.0.0 Safari/537.36" version="27.2.0">
  <diagram name="Page-1" id="NWw8gtwzqd_lzrD5enxQ">
    <mxGraphModel dx="1426" dy="795" grid="1" gridSize="10" guides="1" tooltips="1" connect="1" arrows="1" fold="1" page="1" pageScale="1" pageWidth="827" pageHeight="1169" math="0" shadow="0">
      <root>
        <mxCell id="0" />
        <mxCell id="1" parent="0" />
        <mxCell id="FRFj-RFBdM1ZMxKtOjA2-1" value="USER" style="shape=table;startSize=25;container=1;collapsible=0;childLayout=tableLayout;fixedRows=1;rowLines=1;fontStyle=1;align=center;resizeLast=1;" vertex="1" parent="1">
          <mxGeometry x="271" y="20" width="236" height="385" as="geometry" />
        </mxCell>
        <mxCell id="FRFj-RFBdM1ZMxKtOjA2-2" style="shape=tableRow;horizontal=0;startSize=0;swimlaneHead=0;swimlaneBody=0;fillColor=none;collapsible=0;dropTarget=0;points=[[0,0.5],[1,0.5]];portConstraint=eastwest;top=0;left=0;right=0;bottom=0;" vertex="1" parent="FRFj-RFBdM1ZMxKtOjA2-1">
          <mxGeometry y="25" width="236" height="45" as="geometry" />
        </mxCell>
        <mxCell id="FRFj-RFBdM1ZMxKtOjA2-3" value="UUID" style="shape=partialRectangle;connectable=0;fillColor=none;top=0;left=0;bottom=0;right=0;align=left;spacingLeft=2;overflow=hidden;fontSize=11;" vertex="1" parent="FRFj-RFBdM1ZMxKtOjA2-2">
          <mxGeometry width="54" height="45" as="geometry">
            <mxRectangle width="54" height="45" as="alternateBounds" />
          </mxGeometry>
        </mxCell>
        <mxCell id="FRFj-RFBdM1ZMxKtOjA2-4" value="user_id" style="shape=partialRectangle;connectable=0;fillColor=none;top=0;left=0;bottom=0;right=0;align=left;spacingLeft=2;overflow=hidden;fontSize=11;" vertex="1" parent="FRFj-RFBdM1ZMxKtOjA2-2">
          <mxGeometry x="54" width="182" height="45" as="geometry">
            <mxRectangle width="182" height="45" as="alternateBounds" />
          </mxGeometry>
        </mxCell>
        <mxCell id="FRFj-RFBdM1ZMxKtOjA2-5" style="shape=tableRow;horizontal=0;startSize=0;swimlaneHead=0;swimlaneBody=0;fillColor=none;collapsible=0;dropTarget=0;points=[[0,0.5],[1,0.5]];portConstraint=eastwest;top=0;left=0;right=0;bottom=0;" vertex="1" parent="FRFj-RFBdM1ZMxKtOjA2-1">
          <mxGeometry y="70" width="236" height="45" as="geometry" />
        </mxCell>
        <mxCell id="FRFj-RFBdM1ZMxKtOjA2-6" value="VARCHAR" style="shape=partialRectangle;connectable=0;fillColor=none;top=0;left=0;bottom=0;right=0;align=left;spacingLeft=2;overflow=hidden;fontSize=11;" vertex="1" parent="FRFj-RFBdM1ZMxKtOjA2-5">
          <mxGeometry width="54" height="45" as="geometry">
            <mxRectangle width="54" height="45" as="alternateBounds" />
          </mxGeometry>
        </mxCell>
        <mxCell id="FRFj-RFBdM1ZMxKtOjA2-7" value="first_name" style="shape=partialRectangle;connectable=0;fillColor=none;top=0;left=0;bottom=0;right=0;align=left;spacingLeft=2;overflow=hidden;fontSize=11;" vertex="1" parent="FRFj-RFBdM1ZMxKtOjA2-5">
          <mxGeometry x="54" width="182" height="45" as="geometry">
            <mxRectangle width="182" height="45" as="alternateBounds" />
          </mxGeometry>
        </mxCell>
        <mxCell id="FRFj-RFBdM1ZMxKtOjA2-8" style="shape=tableRow;horizontal=0;startSize=0;swimlaneHead=0;swimlaneBody=0;fillColor=none;collapsible=0;dropTarget=0;points=[[0,0.5],[1,0.5]];portConstraint=eastwest;top=0;left=0;right=0;bottom=0;" vertex="1" parent="FRFj-RFBdM1ZMxKtOjA2-1">
          <mxGeometry y="115" width="236" height="45" as="geometry" />
        </mxCell>
        <mxCell id="FRFj-RFBdM1ZMxKtOjA2-9" value="VARCHAR" style="shape=partialRectangle;connectable=0;fillColor=none;top=0;left=0;bottom=0;right=0;align=left;spacingLeft=2;overflow=hidden;fontSize=11;" vertex="1" parent="FRFj-RFBdM1ZMxKtOjA2-8">
          <mxGeometry width="54" height="45" as="geometry">
            <mxRectangle width="54" height="45" as="alternateBounds" />
          </mxGeometry>
        </mxCell>
        <mxCell id="FRFj-RFBdM1ZMxKtOjA2-10" value="last_name" style="shape=partialRectangle;connectable=0;fillColor=none;top=0;left=0;bottom=0;right=0;align=left;spacingLeft=2;overflow=hidden;fontSize=11;" vertex="1" parent="FRFj-RFBdM1ZMxKtOjA2-8">
          <mxGeometry x="54" width="182" height="45" as="geometry">
            <mxRectangle width="182" height="45" as="alternateBounds" />
          </mxGeometry>
        </mxCell>
        <mxCell id="FRFj-RFBdM1ZMxKtOjA2-11" style="shape=tableRow;horizontal=0;startSize=0;swimlaneHead=0;swimlaneBody=0;fillColor=none;collapsible=0;dropTarget=0;points=[[0,0.5],[1,0.5]];portConstraint=eastwest;top=0;left=0;right=0;bottom=0;" vertex="1" parent="FRFj-RFBdM1ZMxKtOjA2-1">
          <mxGeometry y="160" width="236" height="45" as="geometry" />
        </mxCell>
        <mxCell id="FRFj-RFBdM1ZMxKtOjA2-12" value="VARCHAR" style="shape=partialRectangle;connectable=0;fillColor=none;top=0;left=0;bottom=0;right=0;align=left;spacingLeft=2;overflow=hidden;fontSize=11;" vertex="1" parent="FRFj-RFBdM1ZMxKtOjA2-11">
          <mxGeometry width="54" height="45" as="geometry">
            <mxRectangle width="54" height="45" as="alternateBounds" />
          </mxGeometry>
        </mxCell>
        <mxCell id="FRFj-RFBdM1ZMxKtOjA2-13" value="email" style="shape=partialRectangle;connectable=0;fillColor=none;top=0;left=0;bottom=0;right=0;align=left;spacingLeft=2;overflow=hidden;fontSize=11;" vertex="1" parent="FRFj-RFBdM1ZMxKtOjA2-11">
          <mxGeometry x="54" width="182" height="45" as="geometry">
            <mxRectangle width="182" height="45" as="alternateBounds" />
          </mxGeometry>
        </mxCell>
        <mxCell id="FRFj-RFBdM1ZMxKtOjA2-14" style="shape=tableRow;horizontal=0;startSize=0;swimlaneHead=0;swimlaneBody=0;fillColor=none;collapsible=0;dropTarget=0;points=[[0,0.5],[1,0.5]];portConstraint=eastwest;top=0;left=0;right=0;bottom=0;" vertex="1" parent="FRFj-RFBdM1ZMxKtOjA2-1">
          <mxGeometry y="205" width="236" height="45" as="geometry" />
        </mxCell>
        <mxCell id="FRFj-RFBdM1ZMxKtOjA2-15" value="VARCHAR" style="shape=partialRectangle;connectable=0;fillColor=none;top=0;left=0;bottom=0;right=0;align=left;spacingLeft=2;overflow=hidden;fontSize=11;" vertex="1" parent="FRFj-RFBdM1ZMxKtOjA2-14">
          <mxGeometry width="54" height="45" as="geometry">
            <mxRectangle width="54" height="45" as="alternateBounds" />
          </mxGeometry>
        </mxCell>
        <mxCell id="FRFj-RFBdM1ZMxKtOjA2-16" value="password_hash" style="shape=partialRectangle;connectable=0;fillColor=none;top=0;left=0;bottom=0;right=0;align=left;spacingLeft=2;overflow=hidden;fontSize=11;" vertex="1" parent="FRFj-RFBdM1ZMxKtOjA2-14">
          <mxGeometry x="54" width="182" height="45" as="geometry">
            <mxRectangle width="182" height="45" as="alternateBounds" />
          </mxGeometry>
        </mxCell>
        <mxCell id="FRFj-RFBdM1ZMxKtOjA2-17" style="shape=tableRow;horizontal=0;startSize=0;swimlaneHead=0;swimlaneBody=0;fillColor=none;collapsible=0;dropTarget=0;points=[[0,0.5],[1,0.5]];portConstraint=eastwest;top=0;left=0;right=0;bottom=0;" vertex="1" parent="FRFj-RFBdM1ZMxKtOjA2-1">
          <mxGeometry y="250" width="236" height="45" as="geometry" />
        </mxCell>
        <mxCell id="FRFj-RFBdM1ZMxKtOjA2-18" value="VARCHAR" style="shape=partialRectangle;connectable=0;fillColor=none;top=0;left=0;bottom=0;right=0;align=left;spacingLeft=2;overflow=hidden;fontSize=11;" vertex="1" parent="FRFj-RFBdM1ZMxKtOjA2-17">
          <mxGeometry width="54" height="45" as="geometry">
            <mxRectangle width="54" height="45" as="alternateBounds" />
          </mxGeometry>
        </mxCell>
        <mxCell id="FRFj-RFBdM1ZMxKtOjA2-19" value="phone_number" style="shape=partialRectangle;connectable=0;fillColor=none;top=0;left=0;bottom=0;right=0;align=left;spacingLeft=2;overflow=hidden;fontSize=11;" vertex="1" parent="FRFj-RFBdM1ZMxKtOjA2-17">
          <mxGeometry x="54" width="182" height="45" as="geometry">
            <mxRectangle width="182" height="45" as="alternateBounds" />
          </mxGeometry>
        </mxCell>
        <mxCell id="FRFj-RFBdM1ZMxKtOjA2-20" style="shape=tableRow;horizontal=0;startSize=0;swimlaneHead=0;swimlaneBody=0;fillColor=none;collapsible=0;dropTarget=0;points=[[0,0.5],[1,0.5]];portConstraint=eastwest;top=0;left=0;right=0;bottom=0;" vertex="1" parent="FRFj-RFBdM1ZMxKtOjA2-1">
          <mxGeometry y="295" width="236" height="45" as="geometry" />
        </mxCell>
        <mxCell id="FRFj-RFBdM1ZMxKtOjA2-21" value="ENUM" style="shape=partialRectangle;connectable=0;fillColor=none;top=0;left=0;bottom=0;right=0;align=left;spacingLeft=2;overflow=hidden;fontSize=11;" vertex="1" parent="FRFj-RFBdM1ZMxKtOjA2-20">
          <mxGeometry width="54" height="45" as="geometry">
            <mxRectangle width="54" height="45" as="alternateBounds" />
          </mxGeometry>
        </mxCell>
        <mxCell id="FRFj-RFBdM1ZMxKtOjA2-22" value="role" style="shape=partialRectangle;connectable=0;fillColor=none;top=0;left=0;bottom=0;right=0;align=left;spacingLeft=2;overflow=hidden;fontSize=11;" vertex="1" parent="FRFj-RFBdM1ZMxKtOjA2-20">
          <mxGeometry x="54" width="182" height="45" as="geometry">
            <mxRectangle width="182" height="45" as="alternateBounds" />
          </mxGeometry>
        </mxCell>
        <mxCell id="FRFj-RFBdM1ZMxKtOjA2-23" style="shape=tableRow;horizontal=0;startSize=0;swimlaneHead=0;swimlaneBody=0;fillColor=none;collapsible=0;dropTarget=0;points=[[0,0.5],[1,0.5]];portConstraint=eastwest;top=0;left=0;right=0;bottom=0;" vertex="1" parent="FRFj-RFBdM1ZMxKtOjA2-1">
          <mxGeometry y="340" width="236" height="45" as="geometry" />
        </mxCell>
        <mxCell id="FRFj-RFBdM1ZMxKtOjA2-24" value="TIMESTAMP" style="shape=partialRectangle;connectable=0;fillColor=none;top=0;left=0;bottom=0;right=0;align=left;spacingLeft=2;overflow=hidden;fontSize=11;" vertex="1" parent="FRFj-RFBdM1ZMxKtOjA2-23">
          <mxGeometry width="54" height="45" as="geometry">
            <mxRectangle width="54" height="45" as="alternateBounds" />
          </mxGeometry>
        </mxCell>
        <mxCell id="FRFj-RFBdM1ZMxKtOjA2-25" value="created_at" style="shape=partialRectangle;connectable=0;fillColor=none;top=0;left=0;bottom=0;right=0;align=left;spacingLeft=2;overflow=hidden;fontSize=11;" vertex="1" parent="FRFj-RFBdM1ZMxKtOjA2-23">
          <mxGeometry x="54" width="182" height="45" as="geometry">
            <mxRectangle width="182" height="45" as="alternateBounds" />
          </mxGeometry>
        </mxCell>
        <mxCell id="FRFj-RFBdM1ZMxKtOjA2-26" value="PROPERTY" style="shape=table;startSize=25;container=1;collapsible=0;childLayout=tableLayout;fixedRows=1;rowLines=1;fontStyle=1;align=center;resizeLast=1;" vertex="1" parent="1">
          <mxGeometry x="496" y="508" width="225" height="385" as="geometry" />
        </mxCell>
        <mxCell id="FRFj-RFBdM1ZMxKtOjA2-27" style="shape=tableRow;horizontal=0;startSize=0;swimlaneHead=0;swimlaneBody=0;fillColor=none;collapsible=0;dropTarget=0;points=[[0,0.5],[1,0.5]];portConstraint=eastwest;top=0;left=0;right=0;bottom=0;" vertex="1" parent="FRFj-RFBdM1ZMxKtOjA2-26">
          <mxGeometry y="25" width="225" height="45" as="geometry" />
        </mxCell>
        <mxCell id="FRFj-RFBdM1ZMxKtOjA2-28" value="UUID" style="shape=partialRectangle;connectable=0;fillColor=none;top=0;left=0;bottom=0;right=0;align=left;spacingLeft=2;overflow=hidden;fontSize=11;" vertex="1" parent="FRFj-RFBdM1ZMxKtOjA2-27">
          <mxGeometry width="54" height="45" as="geometry">
            <mxRectangle width="54" height="45" as="alternateBounds" />
          </mxGeometry>
        </mxCell>
        <mxCell id="FRFj-RFBdM1ZMxKtOjA2-29" value="property_id" style="shape=partialRectangle;connectable=0;fillColor=none;top=0;left=0;bottom=0;right=0;align=left;spacingLeft=2;overflow=hidden;fontSize=11;" vertex="1" parent="FRFj-RFBdM1ZMxKtOjA2-27">
          <mxGeometry x="54" width="171" height="45" as="geometry">
            <mxRectangle width="171" height="45" as="alternateBounds" />
          </mxGeometry>
        </mxCell>
        <mxCell id="FRFj-RFBdM1ZMxKtOjA2-30" style="shape=tableRow;horizontal=0;startSize=0;swimlaneHead=0;swimlaneBody=0;fillColor=none;collapsible=0;dropTarget=0;points=[[0,0.5],[1,0.5]];portConstraint=eastwest;top=0;left=0;right=0;bottom=0;" vertex="1" parent="FRFj-RFBdM1ZMxKtOjA2-26">
          <mxGeometry y="70" width="225" height="45" as="geometry" />
        </mxCell>
        <mxCell id="FRFj-RFBdM1ZMxKtOjA2-31" value="UUID" style="shape=partialRectangle;connectable=0;fillColor=none;top=0;left=0;bottom=0;right=0;align=left;spacingLeft=2;overflow=hidden;fontSize=11;" vertex="1" parent="FRFj-RFBdM1ZMxKtOjA2-30">
          <mxGeometry width="54" height="45" as="geometry">
            <mxRectangle width="54" height="45" as="alternateBounds" />
          </mxGeometry>
        </mxCell>
        <mxCell id="FRFj-RFBdM1ZMxKtOjA2-32" value="host_id" style="shape=partialRectangle;connectable=0;fillColor=none;top=0;left=0;bottom=0;right=0;align=left;spacingLeft=2;overflow=hidden;fontSize=11;" vertex="1" parent="FRFj-RFBdM1ZMxKtOjA2-30">
          <mxGeometry x="54" width="171" height="45" as="geometry">
            <mxRectangle width="171" height="45" as="alternateBounds" />
          </mxGeometry>
        </mxCell>
        <mxCell id="FRFj-RFBdM1ZMxKtOjA2-33" style="shape=tableRow;horizontal=0;startSize=0;swimlaneHead=0;swimlaneBody=0;fillColor=none;collapsible=0;dropTarget=0;points=[[0,0.5],[1,0.5]];portConstraint=eastwest;top=0;left=0;right=0;bottom=0;" vertex="1" parent="FRFj-RFBdM1ZMxKtOjA2-26">
          <mxGeometry y="115" width="225" height="45" as="geometry" />
        </mxCell>
        <mxCell id="FRFj-RFBdM1ZMxKtOjA2-34" value="VARCHAR" style="shape=partialRectangle;connectable=0;fillColor=none;top=0;left=0;bottom=0;right=0;align=left;spacingLeft=2;overflow=hidden;fontSize=11;" vertex="1" parent="FRFj-RFBdM1ZMxKtOjA2-33">
          <mxGeometry width="54" height="45" as="geometry">
            <mxRectangle width="54" height="45" as="alternateBounds" />
          </mxGeometry>
        </mxCell>
        <mxCell id="FRFj-RFBdM1ZMxKtOjA2-35" value="name" style="shape=partialRectangle;connectable=0;fillColor=none;top=0;left=0;bottom=0;right=0;align=left;spacingLeft=2;overflow=hidden;fontSize=11;" vertex="1" parent="FRFj-RFBdM1ZMxKtOjA2-33">
          <mxGeometry x="54" width="171" height="45" as="geometry">
            <mxRectangle width="171" height="45" as="alternateBounds" />
          </mxGeometry>
        </mxCell>
        <mxCell id="FRFj-RFBdM1ZMxKtOjA2-36" style="shape=tableRow;horizontal=0;startSize=0;swimlaneHead=0;swimlaneBody=0;fillColor=none;collapsible=0;dropTarget=0;points=[[0,0.5],[1,0.5]];portConstraint=eastwest;top=0;left=0;right=0;bottom=0;" vertex="1" parent="FRFj-RFBdM1ZMxKtOjA2-26">
          <mxGeometry y="160" width="225" height="45" as="geometry" />
        </mxCell>
        <mxCell id="FRFj-RFBdM1ZMxKtOjA2-37" value="TEXT" style="shape=partialRectangle;connectable=0;fillColor=none;top=0;left=0;bottom=0;right=0;align=left;spacingLeft=2;overflow=hidden;fontSize=11;" vertex="1" parent="FRFj-RFBdM1ZMxKtOjA2-36">
          <mxGeometry width="54" height="45" as="geometry">
            <mxRectangle width="54" height="45" as="alternateBounds" />
          </mxGeometry>
        </mxCell>
        <mxCell id="FRFj-RFBdM1ZMxKtOjA2-38" value="description" style="shape=partialRectangle;connectable=0;fillColor=none;top=0;left=0;bottom=0;right=0;align=left;spacingLeft=2;overflow=hidden;fontSize=11;" vertex="1" parent="FRFj-RFBdM1ZMxKtOjA2-36">
          <mxGeometry x="54" width="171" height="45" as="geometry">
            <mxRectangle width="171" height="45" as="alternateBounds" />
          </mxGeometry>
        </mxCell>
        <mxCell id="FRFj-RFBdM1ZMxKtOjA2-39" style="shape=tableRow;horizontal=0;startSize=0;swimlaneHead=0;swimlaneBody=0;fillColor=none;collapsible=0;dropTarget=0;points=[[0,0.5],[1,0.5]];portConstraint=eastwest;top=0;left=0;right=0;bottom=0;" vertex="1" parent="FRFj-RFBdM1ZMxKtOjA2-26">
          <mxGeometry y="205" width="225" height="45" as="geometry" />
        </mxCell>
        <mxCell id="FRFj-RFBdM1ZMxKtOjA2-40" value="VARCHAR" style="shape=partialRectangle;connectable=0;fillColor=none;top=0;left=0;bottom=0;right=0;align=left;spacingLeft=2;overflow=hidden;fontSize=11;" vertex="1" parent="FRFj-RFBdM1ZMxKtOjA2-39">
          <mxGeometry width="54" height="45" as="geometry">
            <mxRectangle width="54" height="45" as="alternateBounds" />
          </mxGeometry>
        </mxCell>
        <mxCell id="FRFj-RFBdM1ZMxKtOjA2-41" value="location" style="shape=partialRectangle;connectable=0;fillColor=none;top=0;left=0;bottom=0;right=0;align=left;spacingLeft=2;overflow=hidden;fontSize=11;" vertex="1" parent="FRFj-RFBdM1ZMxKtOjA2-39">
          <mxGeometry x="54" width="171" height="45" as="geometry">
            <mxRectangle width="171" height="45" as="alternateBounds" />
          </mxGeometry>
        </mxCell>
        <mxCell id="FRFj-RFBdM1ZMxKtOjA2-42" style="shape=tableRow;horizontal=0;startSize=0;swimlaneHead=0;swimlaneBody=0;fillColor=none;collapsible=0;dropTarget=0;points=[[0,0.5],[1,0.5]];portConstraint=eastwest;top=0;left=0;right=0;bottom=0;" vertex="1" parent="FRFj-RFBdM1ZMxKtOjA2-26">
          <mxGeometry y="250" width="225" height="45" as="geometry" />
        </mxCell>
        <mxCell id="FRFj-RFBdM1ZMxKtOjA2-43" value="DECIMAL" style="shape=partialRectangle;connectable=0;fillColor=none;top=0;left=0;bottom=0;right=0;align=left;spacingLeft=2;overflow=hidden;fontSize=11;" vertex="1" parent="FRFj-RFBdM1ZMxKtOjA2-42">
          <mxGeometry width="54" height="45" as="geometry">
            <mxRectangle width="54" height="45" as="alternateBounds" />
          </mxGeometry>
        </mxCell>
        <mxCell id="FRFj-RFBdM1ZMxKtOjA2-44" value="pricepernight" style="shape=partialRectangle;connectable=0;fillColor=none;top=0;left=0;bottom=0;right=0;align=left;spacingLeft=2;overflow=hidden;fontSize=11;" vertex="1" parent="FRFj-RFBdM1ZMxKtOjA2-42">
          <mxGeometry x="54" width="171" height="45" as="geometry">
            <mxRectangle width="171" height="45" as="alternateBounds" />
          </mxGeometry>
        </mxCell>
        <mxCell id="FRFj-RFBdM1ZMxKtOjA2-45" style="shape=tableRow;horizontal=0;startSize=0;swimlaneHead=0;swimlaneBody=0;fillColor=none;collapsible=0;dropTarget=0;points=[[0,0.5],[1,0.5]];portConstraint=eastwest;top=0;left=0;right=0;bottom=0;" vertex="1" parent="FRFj-RFBdM1ZMxKtOjA2-26">
          <mxGeometry y="295" width="225" height="45" as="geometry" />
        </mxCell>
        <mxCell id="FRFj-RFBdM1ZMxKtOjA2-46" value="TIMESTAMP" style="shape=partialRectangle;connectable=0;fillColor=none;top=0;left=0;bottom=0;right=0;align=left;spacingLeft=2;overflow=hidden;fontSize=11;" vertex="1" parent="FRFj-RFBdM1ZMxKtOjA2-45">
          <mxGeometry width="54" height="45" as="geometry">
            <mxRectangle width="54" height="45" as="alternateBounds" />
          </mxGeometry>
        </mxCell>
        <mxCell id="FRFj-RFBdM1ZMxKtOjA2-47" value="created_at" style="shape=partialRectangle;connectable=0;fillColor=none;top=0;left=0;bottom=0;right=0;align=left;spacingLeft=2;overflow=hidden;fontSize=11;" vertex="1" parent="FRFj-RFBdM1ZMxKtOjA2-45">
          <mxGeometry x="54" width="171" height="45" as="geometry">
            <mxRectangle width="171" height="45" as="alternateBounds" />
          </mxGeometry>
        </mxCell>
        <mxCell id="FRFj-RFBdM1ZMxKtOjA2-48" style="shape=tableRow;horizontal=0;startSize=0;swimlaneHead=0;swimlaneBody=0;fillColor=none;collapsible=0;dropTarget=0;points=[[0,0.5],[1,0.5]];portConstraint=eastwest;top=0;left=0;right=0;bottom=0;" vertex="1" parent="FRFj-RFBdM1ZMxKtOjA2-26">
          <mxGeometry y="340" width="225" height="45" as="geometry" />
        </mxCell>
        <mxCell id="FRFj-RFBdM1ZMxKtOjA2-49" value="TIMESTAMP" style="shape=partialRectangle;connectable=0;fillColor=none;top=0;left=0;bottom=0;right=0;align=left;spacingLeft=2;overflow=hidden;fontSize=11;" vertex="1" parent="FRFj-RFBdM1ZMxKtOjA2-48">
          <mxGeometry width="54" height="45" as="geometry">
            <mxRectangle width="54" height="45" as="alternateBounds" />
          </mxGeometry>
        </mxCell>
        <mxCell id="FRFj-RFBdM1ZMxKtOjA2-50" value="updated_at" style="shape=partialRectangle;connectable=0;fillColor=none;top=0;left=0;bottom=0;right=0;align=left;spacingLeft=2;overflow=hidden;fontSize=11;" vertex="1" parent="FRFj-RFBdM1ZMxKtOjA2-48">
          <mxGeometry x="54" width="171" height="45" as="geometry">
            <mxRectangle width="171" height="45" as="alternateBounds" />
          </mxGeometry>
        </mxCell>
        <mxCell id="FRFj-RFBdM1ZMxKtOjA2-51" value="BOOKING" style="shape=table;startSize=25;container=1;collapsible=0;childLayout=tableLayout;fixedRows=1;rowLines=1;fontStyle=1;align=center;resizeLast=1;" vertex="1" parent="1">
          <mxGeometry x="208" y="996" width="213" height="385" as="geometry" />
        </mxCell>
        <mxCell id="FRFj-RFBdM1ZMxKtOjA2-52" style="shape=tableRow;horizontal=0;startSize=0;swimlaneHead=0;swimlaneBody=0;fillColor=none;collapsible=0;dropTarget=0;points=[[0,0.5],[1,0.5]];portConstraint=eastwest;top=0;left=0;right=0;bottom=0;" vertex="1" parent="FRFj-RFBdM1ZMxKtOjA2-51">
          <mxGeometry y="25" width="213" height="45" as="geometry" />
        </mxCell>
        <mxCell id="FRFj-RFBdM1ZMxKtOjA2-53" value="UUID" style="shape=partialRectangle;connectable=0;fillColor=none;top=0;left=0;bottom=0;right=0;align=left;spacingLeft=2;overflow=hidden;fontSize=11;" vertex="1" parent="FRFj-RFBdM1ZMxKtOjA2-52">
          <mxGeometry width="54" height="45" as="geometry">
            <mxRectangle width="54" height="45" as="alternateBounds" />
          </mxGeometry>
        </mxCell>
        <mxCell id="FRFj-RFBdM1ZMxKtOjA2-54" value="booking_id" style="shape=partialRectangle;connectable=0;fillColor=none;top=0;left=0;bottom=0;right=0;align=left;spacingLeft=2;overflow=hidden;fontSize=11;" vertex="1" parent="FRFj-RFBdM1ZMxKtOjA2-52">
          <mxGeometry x="54" width="159" height="45" as="geometry">
            <mxRectangle width="159" height="45" as="alternateBounds" />
          </mxGeometry>
        </mxCell>
        <mxCell id="FRFj-RFBdM1ZMxKtOjA2-55" style="shape=tableRow;horizontal=0;startSize=0;swimlaneHead=0;swimlaneBody=0;fillColor=none;collapsible=0;dropTarget=0;points=[[0,0.5],[1,0.5]];portConstraint=eastwest;top=0;left=0;right=0;bottom=0;" vertex="1" parent="FRFj-RFBdM1ZMxKtOjA2-51">
          <mxGeometry y="70" width="213" height="45" as="geometry" />
        </mxCell>
        <mxCell id="FRFj-RFBdM1ZMxKtOjA2-56" value="UUID" style="shape=partialRectangle;connectable=0;fillColor=none;top=0;left=0;bottom=0;right=0;align=left;spacingLeft=2;overflow=hidden;fontSize=11;" vertex="1" parent="FRFj-RFBdM1ZMxKtOjA2-55">
          <mxGeometry width="54" height="45" as="geometry">
            <mxRectangle width="54" height="45" as="alternateBounds" />
          </mxGeometry>
        </mxCell>
        <mxCell id="FRFj-RFBdM1ZMxKtOjA2-57" value="property_id" style="shape=partialRectangle;connectable=0;fillColor=none;top=0;left=0;bottom=0;right=0;align=left;spacingLeft=2;overflow=hidden;fontSize=11;" vertex="1" parent="FRFj-RFBdM1ZMxKtOjA2-55">
          <mxGeometry x="54" width="159" height="45" as="geometry">
            <mxRectangle width="159" height="45" as="alternateBounds" />
          </mxGeometry>
        </mxCell>
        <mxCell id="FRFj-RFBdM1ZMxKtOjA2-58" style="shape=tableRow;horizontal=0;startSize=0;swimlaneHead=0;swimlaneBody=0;fillColor=none;collapsible=0;dropTarget=0;points=[[0,0.5],[1,0.5]];portConstraint=eastwest;top=0;left=0;right=0;bottom=0;" vertex="1" parent="FRFj-RFBdM1ZMxKtOjA2-51">
          <mxGeometry y="115" width="213" height="45" as="geometry" />
        </mxCell>
        <mxCell id="FRFj-RFBdM1ZMxKtOjA2-59" value="UUID" style="shape=partialRectangle;connectable=0;fillColor=none;top=0;left=0;bottom=0;right=0;align=left;spacingLeft=2;overflow=hidden;fontSize=11;" vertex="1" parent="FRFj-RFBdM1ZMxKtOjA2-58">
          <mxGeometry width="54" height="45" as="geometry">
            <mxRectangle width="54" height="45" as="alternateBounds" />
          </mxGeometry>
        </mxCell>
        <mxCell id="FRFj-RFBdM1ZMxKtOjA2-60" value="user_id" style="shape=partialRectangle;connectable=0;fillColor=none;top=0;left=0;bottom=0;right=0;align=left;spacingLeft=2;overflow=hidden;fontSize=11;" vertex="1" parent="FRFj-RFBdM1ZMxKtOjA2-58">
          <mxGeometry x="54" width="159" height="45" as="geometry">
            <mxRectangle width="159" height="45" as="alternateBounds" />
          </mxGeometry>
        </mxCell>
        <mxCell id="FRFj-RFBdM1ZMxKtOjA2-61" style="shape=tableRow;horizontal=0;startSize=0;swimlaneHead=0;swimlaneBody=0;fillColor=none;collapsible=0;dropTarget=0;points=[[0,0.5],[1,0.5]];portConstraint=eastwest;top=0;left=0;right=0;bottom=0;" vertex="1" parent="FRFj-RFBdM1ZMxKtOjA2-51">
          <mxGeometry y="160" width="213" height="45" as="geometry" />
        </mxCell>
        <mxCell id="FRFj-RFBdM1ZMxKtOjA2-62" value="DATE" style="shape=partialRectangle;connectable=0;fillColor=none;top=0;left=0;bottom=0;right=0;align=left;spacingLeft=2;overflow=hidden;fontSize=11;" vertex="1" parent="FRFj-RFBdM1ZMxKtOjA2-61">
          <mxGeometry width="54" height="45" as="geometry">
            <mxRectangle width="54" height="45" as="alternateBounds" />
          </mxGeometry>
        </mxCell>
        <mxCell id="FRFj-RFBdM1ZMxKtOjA2-63" value="start_date" style="shape=partialRectangle;connectable=0;fillColor=none;top=0;left=0;bottom=0;right=0;align=left;spacingLeft=2;overflow=hidden;fontSize=11;" vertex="1" parent="FRFj-RFBdM1ZMxKtOjA2-61">
          <mxGeometry x="54" width="159" height="45" as="geometry">
            <mxRectangle width="159" height="45" as="alternateBounds" />
          </mxGeometry>
        </mxCell>
        <mxCell id="FRFj-RFBdM1ZMxKtOjA2-64" style="shape=tableRow;horizontal=0;startSize=0;swimlaneHead=0;swimlaneBody=0;fillColor=none;collapsible=0;dropTarget=0;points=[[0,0.5],[1,0.5]];portConstraint=eastwest;top=0;left=0;right=0;bottom=0;" vertex="1" parent="FRFj-RFBdM1ZMxKtOjA2-51">
          <mxGeometry y="205" width="213" height="45" as="geometry" />
        </mxCell>
        <mxCell id="FRFj-RFBdM1ZMxKtOjA2-65" value="DATE" style="shape=partialRectangle;connectable=0;fillColor=none;top=0;left=0;bottom=0;right=0;align=left;spacingLeft=2;overflow=hidden;fontSize=11;" vertex="1" parent="FRFj-RFBdM1ZMxKtOjA2-64">
          <mxGeometry width="54" height="45" as="geometry">
            <mxRectangle width="54" height="45" as="alternateBounds" />
          </mxGeometry>
        </mxCell>
        <mxCell id="FRFj-RFBdM1ZMxKtOjA2-66" value="end_date" style="shape=partialRectangle;connectable=0;fillColor=none;top=0;left=0;bottom=0;right=0;align=left;spacingLeft=2;overflow=hidden;fontSize=11;" vertex="1" parent="FRFj-RFBdM1ZMxKtOjA2-64">
          <mxGeometry x="54" width="159" height="45" as="geometry">
            <mxRectangle width="159" height="45" as="alternateBounds" />
          </mxGeometry>
        </mxCell>
        <mxCell id="FRFj-RFBdM1ZMxKtOjA2-67" style="shape=tableRow;horizontal=0;startSize=0;swimlaneHead=0;swimlaneBody=0;fillColor=none;collapsible=0;dropTarget=0;points=[[0,0.5],[1,0.5]];portConstraint=eastwest;top=0;left=0;right=0;bottom=0;" vertex="1" parent="FRFj-RFBdM1ZMxKtOjA2-51">
          <mxGeometry y="250" width="213" height="45" as="geometry" />
        </mxCell>
        <mxCell id="FRFj-RFBdM1ZMxKtOjA2-68" value="DECIMAL" style="shape=partialRectangle;connectable=0;fillColor=none;top=0;left=0;bottom=0;right=0;align=left;spacingLeft=2;overflow=hidden;fontSize=11;" vertex="1" parent="FRFj-RFBdM1ZMxKtOjA2-67">
          <mxGeometry width="54" height="45" as="geometry">
            <mxRectangle width="54" height="45" as="alternateBounds" />
          </mxGeometry>
        </mxCell>
        <mxCell id="FRFj-RFBdM1ZMxKtOjA2-69" value="total_price" style="shape=partialRectangle;connectable=0;fillColor=none;top=0;left=0;bottom=0;right=0;align=left;spacingLeft=2;overflow=hidden;fontSize=11;" vertex="1" parent="FRFj-RFBdM1ZMxKtOjA2-67">
          <mxGeometry x="54" width="159" height="45" as="geometry">
            <mxRectangle width="159" height="45" as="alternateBounds" />
          </mxGeometry>
        </mxCell>
        <mxCell id="FRFj-RFBdM1ZMxKtOjA2-70" style="shape=tableRow;horizontal=0;startSize=0;swimlaneHead=0;swimlaneBody=0;fillColor=none;collapsible=0;dropTarget=0;points=[[0,0.5],[1,0.5]];portConstraint=eastwest;top=0;left=0;right=0;bottom=0;" vertex="1" parent="FRFj-RFBdM1ZMxKtOjA2-51">
          <mxGeometry y="295" width="213" height="45" as="geometry" />
        </mxCell>
        <mxCell id="FRFj-RFBdM1ZMxKtOjA2-71" value="ENUM" style="shape=partialRectangle;connectable=0;fillColor=none;top=0;left=0;bottom=0;right=0;align=left;spacingLeft=2;overflow=hidden;fontSize=11;" vertex="1" parent="FRFj-RFBdM1ZMxKtOjA2-70">
          <mxGeometry width="54" height="45" as="geometry">
            <mxRectangle width="54" height="45" as="alternateBounds" />
          </mxGeometry>
        </mxCell>
        <mxCell id="FRFj-RFBdM1ZMxKtOjA2-72" value="status" style="shape=partialRectangle;connectable=0;fillColor=none;top=0;left=0;bottom=0;right=0;align=left;spacingLeft=2;overflow=hidden;fontSize=11;" vertex="1" parent="FRFj-RFBdM1ZMxKtOjA2-70">
          <mxGeometry x="54" width="159" height="45" as="geometry">
            <mxRectangle width="159" height="45" as="alternateBounds" />
          </mxGeometry>
        </mxCell>
        <mxCell id="FRFj-RFBdM1ZMxKtOjA2-73" style="shape=tableRow;horizontal=0;startSize=0;swimlaneHead=0;swimlaneBody=0;fillColor=none;collapsible=0;dropTarget=0;points=[[0,0.5],[1,0.5]];portConstraint=eastwest;top=0;left=0;right=0;bottom=0;" vertex="1" parent="FRFj-RFBdM1ZMxKtOjA2-51">
          <mxGeometry y="340" width="213" height="45" as="geometry" />
        </mxCell>
        <mxCell id="FRFj-RFBdM1ZMxKtOjA2-74" value="TIMESTAMP" style="shape=partialRectangle;connectable=0;fillColor=none;top=0;left=0;bottom=0;right=0;align=left;spacingLeft=2;overflow=hidden;fontSize=11;" vertex="1" parent="FRFj-RFBdM1ZMxKtOjA2-73">
          <mxGeometry width="54" height="45" as="geometry">
            <mxRectangle width="54" height="45" as="alternateBounds" />
          </mxGeometry>
        </mxCell>
        <mxCell id="FRFj-RFBdM1ZMxKtOjA2-75" value="created_at" style="shape=partialRectangle;connectable=0;fillColor=none;top=0;left=0;bottom=0;right=0;align=left;spacingLeft=2;overflow=hidden;fontSize=11;" vertex="1" parent="FRFj-RFBdM1ZMxKtOjA2-73">
          <mxGeometry x="54" width="159" height="45" as="geometry">
            <mxRectangle width="159" height="45" as="alternateBounds" />
          </mxGeometry>
        </mxCell>
        <mxCell id="FRFj-RFBdM1ZMxKtOjA2-76" value="PAYMENT" style="shape=table;startSize=25;container=1;collapsible=0;childLayout=tableLayout;fixedRows=1;rowLines=1;fontStyle=1;align=center;resizeLast=1;" vertex="1" parent="1">
          <mxGeometry x="187" y="1483" width="254" height="257" as="geometry" />
        </mxCell>
        <mxCell id="FRFj-RFBdM1ZMxKtOjA2-77" style="shape=tableRow;horizontal=0;startSize=0;swimlaneHead=0;swimlaneBody=0;fillColor=none;collapsible=0;dropTarget=0;points=[[0,0.5],[1,0.5]];portConstraint=eastwest;top=0;left=0;right=0;bottom=0;" vertex="1" parent="FRFj-RFBdM1ZMxKtOjA2-76">
          <mxGeometry y="25" width="254" height="46" as="geometry" />
        </mxCell>
        <mxCell id="FRFj-RFBdM1ZMxKtOjA2-78" value="UUID" style="shape=partialRectangle;connectable=0;fillColor=none;top=0;left=0;bottom=0;right=0;align=left;spacingLeft=2;overflow=hidden;fontSize=11;" vertex="1" parent="FRFj-RFBdM1ZMxKtOjA2-77">
          <mxGeometry width="54" height="46" as="geometry">
            <mxRectangle width="54" height="46" as="alternateBounds" />
          </mxGeometry>
        </mxCell>
        <mxCell id="FRFj-RFBdM1ZMxKtOjA2-79" value="payment_id" style="shape=partialRectangle;connectable=0;fillColor=none;top=0;left=0;bottom=0;right=0;align=left;spacingLeft=2;overflow=hidden;fontSize=11;" vertex="1" parent="FRFj-RFBdM1ZMxKtOjA2-77">
          <mxGeometry x="54" width="200" height="46" as="geometry">
            <mxRectangle width="200" height="46" as="alternateBounds" />
          </mxGeometry>
        </mxCell>
        <mxCell id="FRFj-RFBdM1ZMxKtOjA2-80" style="shape=tableRow;horizontal=0;startSize=0;swimlaneHead=0;swimlaneBody=0;fillColor=none;collapsible=0;dropTarget=0;points=[[0,0.5],[1,0.5]];portConstraint=eastwest;top=0;left=0;right=0;bottom=0;" vertex="1" parent="FRFj-RFBdM1ZMxKtOjA2-76">
          <mxGeometry y="71" width="254" height="46" as="geometry" />
        </mxCell>
        <mxCell id="FRFj-RFBdM1ZMxKtOjA2-81" value="UUID" style="shape=partialRectangle;connectable=0;fillColor=none;top=0;left=0;bottom=0;right=0;align=left;spacingLeft=2;overflow=hidden;fontSize=11;" vertex="1" parent="FRFj-RFBdM1ZMxKtOjA2-80">
          <mxGeometry width="54" height="46" as="geometry">
            <mxRectangle width="54" height="46" as="alternateBounds" />
          </mxGeometry>
        </mxCell>
        <mxCell id="FRFj-RFBdM1ZMxKtOjA2-82" value="booking_id" style="shape=partialRectangle;connectable=0;fillColor=none;top=0;left=0;bottom=0;right=0;align=left;spacingLeft=2;overflow=hidden;fontSize=11;" vertex="1" parent="FRFj-RFBdM1ZMxKtOjA2-80">
          <mxGeometry x="54" width="200" height="46" as="geometry">
            <mxRectangle width="200" height="46" as="alternateBounds" />
          </mxGeometry>
        </mxCell>
        <mxCell id="FRFj-RFBdM1ZMxKtOjA2-83" style="shape=tableRow;horizontal=0;startSize=0;swimlaneHead=0;swimlaneBody=0;fillColor=none;collapsible=0;dropTarget=0;points=[[0,0.5],[1,0.5]];portConstraint=eastwest;top=0;left=0;right=0;bottom=0;" vertex="1" parent="FRFj-RFBdM1ZMxKtOjA2-76">
          <mxGeometry y="117" width="254" height="46" as="geometry" />
        </mxCell>
        <mxCell id="FRFj-RFBdM1ZMxKtOjA2-84" value="DECIMAL" style="shape=partialRectangle;connectable=0;fillColor=none;top=0;left=0;bottom=0;right=0;align=left;spacingLeft=2;overflow=hidden;fontSize=11;" vertex="1" parent="FRFj-RFBdM1ZMxKtOjA2-83">
          <mxGeometry width="54" height="46" as="geometry">
            <mxRectangle width="54" height="46" as="alternateBounds" />
          </mxGeometry>
        </mxCell>
        <mxCell id="FRFj-RFBdM1ZMxKtOjA2-85" value="amount" style="shape=partialRectangle;connectable=0;fillColor=none;top=0;left=0;bottom=0;right=0;align=left;spacingLeft=2;overflow=hidden;fontSize=11;" vertex="1" parent="FRFj-RFBdM1ZMxKtOjA2-83">
          <mxGeometry x="54" width="200" height="46" as="geometry">
            <mxRectangle width="200" height="46" as="alternateBounds" />
          </mxGeometry>
        </mxCell>
        <mxCell id="FRFj-RFBdM1ZMxKtOjA2-86" style="shape=tableRow;horizontal=0;startSize=0;swimlaneHead=0;swimlaneBody=0;fillColor=none;collapsible=0;dropTarget=0;points=[[0,0.5],[1,0.5]];portConstraint=eastwest;top=0;left=0;right=0;bottom=0;" vertex="1" parent="FRFj-RFBdM1ZMxKtOjA2-76">
          <mxGeometry y="163" width="254" height="46" as="geometry" />
        </mxCell>
        <mxCell id="FRFj-RFBdM1ZMxKtOjA2-87" value="TIMESTAMP" style="shape=partialRectangle;connectable=0;fillColor=none;top=0;left=0;bottom=0;right=0;align=left;spacingLeft=2;overflow=hidden;fontSize=11;" vertex="1" parent="FRFj-RFBdM1ZMxKtOjA2-86">
          <mxGeometry width="54" height="46" as="geometry">
            <mxRectangle width="54" height="46" as="alternateBounds" />
          </mxGeometry>
        </mxCell>
        <mxCell id="FRFj-RFBdM1ZMxKtOjA2-88" value="payment_date" style="shape=partialRectangle;connectable=0;fillColor=none;top=0;left=0;bottom=0;right=0;align=left;spacingLeft=2;overflow=hidden;fontSize=11;" vertex="1" parent="FRFj-RFBdM1ZMxKtOjA2-86">
          <mxGeometry x="54" width="200" height="46" as="geometry">
            <mxRectangle width="200" height="46" as="alternateBounds" />
          </mxGeometry>
        </mxCell>
        <mxCell id="FRFj-RFBdM1ZMxKtOjA2-89" style="shape=tableRow;horizontal=0;startSize=0;swimlaneHead=0;swimlaneBody=0;fillColor=none;collapsible=0;dropTarget=0;points=[[0,0.5],[1,0.5]];portConstraint=eastwest;top=0;left=0;right=0;bottom=0;" vertex="1" parent="FRFj-RFBdM1ZMxKtOjA2-76">
          <mxGeometry y="209" width="254" height="46" as="geometry" />
        </mxCell>
        <mxCell id="FRFj-RFBdM1ZMxKtOjA2-90" value="ENUM" style="shape=partialRectangle;connectable=0;fillColor=none;top=0;left=0;bottom=0;right=0;align=left;spacingLeft=2;overflow=hidden;fontSize=11;" vertex="1" parent="FRFj-RFBdM1ZMxKtOjA2-89">
          <mxGeometry width="54" height="46" as="geometry">
            <mxRectangle width="54" height="46" as="alternateBounds" />
          </mxGeometry>
        </mxCell>
        <mxCell id="FRFj-RFBdM1ZMxKtOjA2-91" value="payment_method" style="shape=partialRectangle;connectable=0;fillColor=none;top=0;left=0;bottom=0;right=0;align=left;spacingLeft=2;overflow=hidden;fontSize=11;" vertex="1" parent="FRFj-RFBdM1ZMxKtOjA2-89">
          <mxGeometry x="54" width="200" height="46" as="geometry">
            <mxRectangle width="200" height="46" as="alternateBounds" />
          </mxGeometry>
        </mxCell>
        <mxCell id="FRFj-RFBdM1ZMxKtOjA2-92" value="REVIEW" style="shape=table;startSize=25;container=1;collapsible=0;childLayout=tableLayout;fixedRows=1;rowLines=1;fontStyle=1;align=center;resizeLast=1;" vertex="1" parent="1">
          <mxGeometry x="788" y="1038" width="213" height="301" as="geometry" />
        </mxCell>
        <mxCell id="FRFj-RFBdM1ZMxKtOjA2-93" style="shape=tableRow;horizontal=0;startSize=0;swimlaneHead=0;swimlaneBody=0;fillColor=none;collapsible=0;dropTarget=0;points=[[0,0.5],[1,0.5]];portConstraint=eastwest;top=0;left=0;right=0;bottom=0;" vertex="1" parent="FRFj-RFBdM1ZMxKtOjA2-92">
          <mxGeometry y="25" width="213" height="46" as="geometry" />
        </mxCell>
        <mxCell id="FRFj-RFBdM1ZMxKtOjA2-94" value="UUID" style="shape=partialRectangle;connectable=0;fillColor=none;top=0;left=0;bottom=0;right=0;align=left;spacingLeft=2;overflow=hidden;fontSize=11;" vertex="1" parent="FRFj-RFBdM1ZMxKtOjA2-93">
          <mxGeometry width="54" height="46" as="geometry">
            <mxRectangle width="54" height="46" as="alternateBounds" />
          </mxGeometry>
        </mxCell>
        <mxCell id="FRFj-RFBdM1ZMxKtOjA2-95" value="review_id" style="shape=partialRectangle;connectable=0;fillColor=none;top=0;left=0;bottom=0;right=0;align=left;spacingLeft=2;overflow=hidden;fontSize=11;" vertex="1" parent="FRFj-RFBdM1ZMxKtOjA2-93">
          <mxGeometry x="54" width="159" height="46" as="geometry">
            <mxRectangle width="159" height="46" as="alternateBounds" />
          </mxGeometry>
        </mxCell>
        <mxCell id="FRFj-RFBdM1ZMxKtOjA2-96" style="shape=tableRow;horizontal=0;startSize=0;swimlaneHead=0;swimlaneBody=0;fillColor=none;collapsible=0;dropTarget=0;points=[[0,0.5],[1,0.5]];portConstraint=eastwest;top=0;left=0;right=0;bottom=0;" vertex="1" parent="FRFj-RFBdM1ZMxKtOjA2-92">
          <mxGeometry y="71" width="213" height="46" as="geometry" />
        </mxCell>
        <mxCell id="FRFj-RFBdM1ZMxKtOjA2-97" value="UUID" style="shape=partialRectangle;connectable=0;fillColor=none;top=0;left=0;bottom=0;right=0;align=left;spacingLeft=2;overflow=hidden;fontSize=11;" vertex="1" parent="FRFj-RFBdM1ZMxKtOjA2-96">
          <mxGeometry width="54" height="46" as="geometry">
            <mxRectangle width="54" height="46" as="alternateBounds" />
          </mxGeometry>
        </mxCell>
        <mxCell id="FRFj-RFBdM1ZMxKtOjA2-98" value="property_id" style="shape=partialRectangle;connectable=0;fillColor=none;top=0;left=0;bottom=0;right=0;align=left;spacingLeft=2;overflow=hidden;fontSize=11;" vertex="1" parent="FRFj-RFBdM1ZMxKtOjA2-96">
          <mxGeometry x="54" width="159" height="46" as="geometry">
            <mxRectangle width="159" height="46" as="alternateBounds" />
          </mxGeometry>
        </mxCell>
        <mxCell id="FRFj-RFBdM1ZMxKtOjA2-99" style="shape=tableRow;horizontal=0;startSize=0;swimlaneHead=0;swimlaneBody=0;fillColor=none;collapsible=0;dropTarget=0;points=[[0,0.5],[1,0.5]];portConstraint=eastwest;top=0;left=0;right=0;bottom=0;" vertex="1" parent="FRFj-RFBdM1ZMxKtOjA2-92">
          <mxGeometry y="117" width="213" height="46" as="geometry" />
        </mxCell>
        <mxCell id="FRFj-RFBdM1ZMxKtOjA2-100" value="UUID" style="shape=partialRectangle;connectable=0;fillColor=none;top=0;left=0;bottom=0;right=0;align=left;spacingLeft=2;overflow=hidden;fontSize=11;" vertex="1" parent="FRFj-RFBdM1ZMxKtOjA2-99">
          <mxGeometry width="54" height="46" as="geometry">
            <mxRectangle width="54" height="46" as="alternateBounds" />
          </mxGeometry>
        </mxCell>
        <mxCell id="FRFj-RFBdM1ZMxKtOjA2-101" value="user_id" style="shape=partialRectangle;connectable=0;fillColor=none;top=0;left=0;bottom=0;right=0;align=left;spacingLeft=2;overflow=hidden;fontSize=11;" vertex="1" parent="FRFj-RFBdM1ZMxKtOjA2-99">
          <mxGeometry x="54" width="159" height="46" as="geometry">
            <mxRectangle width="159" height="46" as="alternateBounds" />
          </mxGeometry>
        </mxCell>
        <mxCell id="FRFj-RFBdM1ZMxKtOjA2-102" style="shape=tableRow;horizontal=0;startSize=0;swimlaneHead=0;swimlaneBody=0;fillColor=none;collapsible=0;dropTarget=0;points=[[0,0.5],[1,0.5]];portConstraint=eastwest;top=0;left=0;right=0;bottom=0;" vertex="1" parent="FRFj-RFBdM1ZMxKtOjA2-92">
          <mxGeometry y="163" width="213" height="46" as="geometry" />
        </mxCell>
        <mxCell id="FRFj-RFBdM1ZMxKtOjA2-103" value="INTEGER" style="shape=partialRectangle;connectable=0;fillColor=none;top=0;left=0;bottom=0;right=0;align=left;spacingLeft=2;overflow=hidden;fontSize=11;" vertex="1" parent="FRFj-RFBdM1ZMxKtOjA2-102">
          <mxGeometry width="54" height="46" as="geometry">
            <mxRectangle width="54" height="46" as="alternateBounds" />
          </mxGeometry>
        </mxCell>
        <mxCell id="FRFj-RFBdM1ZMxKtOjA2-104" value="rating" style="shape=partialRectangle;connectable=0;fillColor=none;top=0;left=0;bottom=0;right=0;align=left;spacingLeft=2;overflow=hidden;fontSize=11;" vertex="1" parent="FRFj-RFBdM1ZMxKtOjA2-102">
          <mxGeometry x="54" width="159" height="46" as="geometry">
            <mxRectangle width="159" height="46" as="alternateBounds" />
          </mxGeometry>
        </mxCell>
        <mxCell id="FRFj-RFBdM1ZMxKtOjA2-105" style="shape=tableRow;horizontal=0;startSize=0;swimlaneHead=0;swimlaneBody=0;fillColor=none;collapsible=0;dropTarget=0;points=[[0,0.5],[1,0.5]];portConstraint=eastwest;top=0;left=0;right=0;bottom=0;" vertex="1" parent="FRFj-RFBdM1ZMxKtOjA2-92">
          <mxGeometry y="209" width="213" height="46" as="geometry" />
        </mxCell>
        <mxCell id="FRFj-RFBdM1ZMxKtOjA2-106" value="TEXT" style="shape=partialRectangle;connectable=0;fillColor=none;top=0;left=0;bottom=0;right=0;align=left;spacingLeft=2;overflow=hidden;fontSize=11;" vertex="1" parent="FRFj-RFBdM1ZMxKtOjA2-105">
          <mxGeometry width="54" height="46" as="geometry">
            <mxRectangle width="54" height="46" as="alternateBounds" />
          </mxGeometry>
        </mxCell>
        <mxCell id="FRFj-RFBdM1ZMxKtOjA2-107" value="comment" style="shape=partialRectangle;connectable=0;fillColor=none;top=0;left=0;bottom=0;right=0;align=left;spacingLeft=2;overflow=hidden;fontSize=11;" vertex="1" parent="FRFj-RFBdM1ZMxKtOjA2-105">
          <mxGeometry x="54" width="159" height="46" as="geometry">
            <mxRectangle width="159" height="46" as="alternateBounds" />
          </mxGeometry>
        </mxCell>
        <mxCell id="FRFj-RFBdM1ZMxKtOjA2-108" style="shape=tableRow;horizontal=0;startSize=0;swimlaneHead=0;swimlaneBody=0;fillColor=none;collapsible=0;dropTarget=0;points=[[0,0.5],[1,0.5]];portConstraint=eastwest;top=0;left=0;right=0;bottom=0;" vertex="1" parent="FRFj-RFBdM1ZMxKtOjA2-92">
          <mxGeometry y="255" width="213" height="46" as="geometry" />
        </mxCell>
        <mxCell id="FRFj-RFBdM1ZMxKtOjA2-109" value="TIMESTAMP" style="shape=partialRectangle;connectable=0;fillColor=none;top=0;left=0;bottom=0;right=0;align=left;spacingLeft=2;overflow=hidden;fontSize=11;" vertex="1" parent="FRFj-RFBdM1ZMxKtOjA2-108">
          <mxGeometry width="54" height="46" as="geometry">
            <mxRectangle width="54" height="46" as="alternateBounds" />
          </mxGeometry>
        </mxCell>
        <mxCell id="FRFj-RFBdM1ZMxKtOjA2-110" value="created_at" style="shape=partialRectangle;connectable=0;fillColor=none;top=0;left=0;bottom=0;right=0;align=left;spacingLeft=2;overflow=hidden;fontSize=11;" vertex="1" parent="FRFj-RFBdM1ZMxKtOjA2-108">
          <mxGeometry x="54" width="159" height="46" as="geometry">
            <mxRectangle width="159" height="46" as="alternateBounds" />
          </mxGeometry>
        </mxCell>
        <mxCell id="FRFj-RFBdM1ZMxKtOjA2-111" value="MESSAGE" style="shape=table;startSize=25;container=1;collapsible=0;childLayout=tableLayout;fixedRows=1;rowLines=1;fontStyle=1;align=center;resizeLast=1;" vertex="1" parent="1">
          <mxGeometry x="124" y="572" width="232" height="257" as="geometry" />
        </mxCell>
        <mxCell id="FRFj-RFBdM1ZMxKtOjA2-112" style="shape=tableRow;horizontal=0;startSize=0;swimlaneHead=0;swimlaneBody=0;fillColor=none;collapsible=0;dropTarget=0;points=[[0,0.5],[1,0.5]];portConstraint=eastwest;top=0;left=0;right=0;bottom=0;" vertex="1" parent="FRFj-RFBdM1ZMxKtOjA2-111">
          <mxGeometry y="25" width="232" height="46" as="geometry" />
        </mxCell>
        <mxCell id="FRFj-RFBdM1ZMxKtOjA2-113" value="UUID" style="shape=partialRectangle;connectable=0;fillColor=none;top=0;left=0;bottom=0;right=0;align=left;spacingLeft=2;overflow=hidden;fontSize=11;" vertex="1" parent="FRFj-RFBdM1ZMxKtOjA2-112">
          <mxGeometry width="54" height="46" as="geometry">
            <mxRectangle width="54" height="46" as="alternateBounds" />
          </mxGeometry>
        </mxCell>
        <mxCell id="FRFj-RFBdM1ZMxKtOjA2-114" value="message_id" style="shape=partialRectangle;connectable=0;fillColor=none;top=0;left=0;bottom=0;right=0;align=left;spacingLeft=2;overflow=hidden;fontSize=11;" vertex="1" parent="FRFj-RFBdM1ZMxKtOjA2-112">
          <mxGeometry x="54" width="178" height="46" as="geometry">
            <mxRectangle width="178" height="46" as="alternateBounds" />
          </mxGeometry>
        </mxCell>
        <mxCell id="FRFj-RFBdM1ZMxKtOjA2-115" style="shape=tableRow;horizontal=0;startSize=0;swimlaneHead=0;swimlaneBody=0;fillColor=none;collapsible=0;dropTarget=0;points=[[0,0.5],[1,0.5]];portConstraint=eastwest;top=0;left=0;right=0;bottom=0;" vertex="1" parent="FRFj-RFBdM1ZMxKtOjA2-111">
          <mxGeometry y="71" width="232" height="46" as="geometry" />
        </mxCell>
        <mxCell id="FRFj-RFBdM1ZMxKtOjA2-116" value="UUID" style="shape=partialRectangle;connectable=0;fillColor=none;top=0;left=0;bottom=0;right=0;align=left;spacingLeft=2;overflow=hidden;fontSize=11;" vertex="1" parent="FRFj-RFBdM1ZMxKtOjA2-115">
          <mxGeometry width="54" height="46" as="geometry">
            <mxRectangle width="54" height="46" as="alternateBounds" />
          </mxGeometry>
        </mxCell>
        <mxCell id="FRFj-RFBdM1ZMxKtOjA2-117" value="sender_id" style="shape=partialRectangle;connectable=0;fillColor=none;top=0;left=0;bottom=0;right=0;align=left;spacingLeft=2;overflow=hidden;fontSize=11;" vertex="1" parent="FRFj-RFBdM1ZMxKtOjA2-115">
          <mxGeometry x="54" width="178" height="46" as="geometry">
            <mxRectangle width="178" height="46" as="alternateBounds" />
          </mxGeometry>
        </mxCell>
        <mxCell id="FRFj-RFBdM1ZMxKtOjA2-118" style="shape=tableRow;horizontal=0;startSize=0;swimlaneHead=0;swimlaneBody=0;fillColor=none;collapsible=0;dropTarget=0;points=[[0,0.5],[1,0.5]];portConstraint=eastwest;top=0;left=0;right=0;bottom=0;" vertex="1" parent="FRFj-RFBdM1ZMxKtOjA2-111">
          <mxGeometry y="117" width="232" height="46" as="geometry" />
        </mxCell>
        <mxCell id="FRFj-RFBdM1ZMxKtOjA2-119" value="UUID" style="shape=partialRectangle;connectable=0;fillColor=none;top=0;left=0;bottom=0;right=0;align=left;spacingLeft=2;overflow=hidden;fontSize=11;" vertex="1" parent="FRFj-RFBdM1ZMxKtOjA2-118">
          <mxGeometry width="54" height="46" as="geometry">
            <mxRectangle width="54" height="46" as="alternateBounds" />
          </mxGeometry>
        </mxCell>
        <mxCell id="FRFj-RFBdM1ZMxKtOjA2-120" value="recipient_id" style="shape=partialRectangle;connectable=0;fillColor=none;top=0;left=0;bottom=0;right=0;align=left;spacingLeft=2;overflow=hidden;fontSize=11;" vertex="1" parent="FRFj-RFBdM1ZMxKtOjA2-118">
          <mxGeometry x="54" width="178" height="46" as="geometry">
            <mxRectangle width="178" height="46" as="alternateBounds" />
          </mxGeometry>
        </mxCell>
        <mxCell id="FRFj-RFBdM1ZMxKtOjA2-121" style="shape=tableRow;horizontal=0;startSize=0;swimlaneHead=0;swimlaneBody=0;fillColor=none;collapsible=0;dropTarget=0;points=[[0,0.5],[1,0.5]];portConstraint=eastwest;top=0;left=0;right=0;bottom=0;" vertex="1" parent="FRFj-RFBdM1ZMxKtOjA2-111">
          <mxGeometry y="163" width="232" height="46" as="geometry" />
        </mxCell>
        <mxCell id="FRFj-RFBdM1ZMxKtOjA2-122" value="TEXT" style="shape=partialRectangle;connectable=0;fillColor=none;top=0;left=0;bottom=0;right=0;align=left;spacingLeft=2;overflow=hidden;fontSize=11;" vertex="1" parent="FRFj-RFBdM1ZMxKtOjA2-121">
          <mxGeometry width="54" height="46" as="geometry">
            <mxRectangle width="54" height="46" as="alternateBounds" />
          </mxGeometry>
        </mxCell>
        <mxCell id="FRFj-RFBdM1ZMxKtOjA2-123" value="message_body" style="shape=partialRectangle;connectable=0;fillColor=none;top=0;left=0;bottom=0;right=0;align=left;spacingLeft=2;overflow=hidden;fontSize=11;" vertex="1" parent="FRFj-RFBdM1ZMxKtOjA2-121">
          <mxGeometry x="54" width="178" height="46" as="geometry">
            <mxRectangle width="178" height="46" as="alternateBounds" />
          </mxGeometry>
        </mxCell>
        <mxCell id="FRFj-RFBdM1ZMxKtOjA2-124" style="shape=tableRow;horizontal=0;startSize=0;swimlaneHead=0;swimlaneBody=0;fillColor=none;collapsible=0;dropTarget=0;points=[[0,0.5],[1,0.5]];portConstraint=eastwest;top=0;left=0;right=0;bottom=0;" vertex="1" parent="FRFj-RFBdM1ZMxKtOjA2-111">
          <mxGeometry y="209" width="232" height="46" as="geometry" />
        </mxCell>
        <mxCell id="FRFj-RFBdM1ZMxKtOjA2-125" value="TIMESTAMP" style="shape=partialRectangle;connectable=0;fillColor=none;top=0;left=0;bottom=0;right=0;align=left;spacingLeft=2;overflow=hidden;fontSize=11;" vertex="1" parent="FRFj-RFBdM1ZMxKtOjA2-124">
          <mxGeometry width="54" height="46" as="geometry">
            <mxRectangle width="54" height="46" as="alternateBounds" />
          </mxGeometry>
        </mxCell>
        <mxCell id="FRFj-RFBdM1ZMxKtOjA2-126" value="sent_at" style="shape=partialRectangle;connectable=0;fillColor=none;top=0;left=0;bottom=0;right=0;align=left;spacingLeft=2;overflow=hidden;fontSize=11;" vertex="1" parent="FRFj-RFBdM1ZMxKtOjA2-124">
          <mxGeometry x="54" width="178" height="46" as="geometry">
            <mxRectangle width="178" height="46" as="alternateBounds" />
          </mxGeometry>
        </mxCell>
        <mxCell id="FRFj-RFBdM1ZMxKtOjA2-127" value="hosts" style="curved=1;startArrow=ERmandOne;startSize=10;;endArrow=ERzeroToMany;endSize=10;;exitX=1;exitY=0.84;entryX=0.5;entryY=0;rounded=0;" edge="1" parent="1" source="FRFj-RFBdM1ZMxKtOjA2-1" target="FRFj-RFBdM1ZMxKtOjA2-26">
          <mxGeometry relative="1" as="geometry">
            <Array as="points">
              <mxPoint x="609" y="456" />
            </Array>
          </mxGeometry>
        </mxCell>
        <mxCell id="FRFj-RFBdM1ZMxKtOjA2-128" value="makes" style="curved=1;startArrow=ERmandOne;startSize=10;;endArrow=ERzeroToMany;endSize=10;;exitX=0;exitY=0.7;entryX=0;entryY=0.27;rounded=0;" edge="1" parent="1" source="FRFj-RFBdM1ZMxKtOjA2-1" target="FRFj-RFBdM1ZMxKtOjA2-51">
          <mxGeometry relative="1" as="geometry">
            <Array as="points">
              <mxPoint x="20" y="456" />
              <mxPoint x="20" y="944" />
            </Array>
          </mxGeometry>
        </mxCell>
        <mxCell id="FRFj-RFBdM1ZMxKtOjA2-129" value="writes" style="curved=1;startArrow=ERmandOne;startSize=10;;endArrow=ERzeroToMany;endSize=10;;exitX=1;exitY=0.67;entryX=0.3;entryY=0;rounded=0;" edge="1" parent="1" source="FRFj-RFBdM1ZMxKtOjA2-1" target="FRFj-RFBdM1ZMxKtOjA2-92">
          <mxGeometry relative="1" as="geometry">
            <Array as="points">
              <mxPoint x="826" y="456" />
              <mxPoint x="826" y="944" />
            </Array>
          </mxGeometry>
        </mxCell>
        <mxCell id="FRFj-RFBdM1ZMxKtOjA2-130" value="sends" style="curved=1;startArrow=ERmandOne;startSize=10;;endArrow=ERzeroToMany;endSize=10;;exitX=0;exitY=0.81;entryX=0.3;entryY=0;rounded=0;" edge="1" parent="1" source="FRFj-RFBdM1ZMxKtOjA2-1" target="FRFj-RFBdM1ZMxKtOjA2-111">
          <mxGeometry relative="1" as="geometry">
            <Array as="points">
              <mxPoint x="151" y="456" />
            </Array>
          </mxGeometry>
        </mxCell>
        <mxCell id="FRFj-RFBdM1ZMxKtOjA2-131" value="receives" style="curved=1;startArrow=ERzeroToMany;startSize=10;;endArrow=ERmandOne;endSize=10;;exitX=0.84;exitY=0;entryX=0.5;entryY=1;rounded=0;" edge="1" parent="1" source="FRFj-RFBdM1ZMxKtOjA2-111" target="FRFj-RFBdM1ZMxKtOjA2-1">
          <mxGeometry relative="1" as="geometry">
            <Array as="points">
              <mxPoint x="388" y="456" />
            </Array>
          </mxGeometry>
        </mxCell>
        <mxCell id="FRFj-RFBdM1ZMxKtOjA2-132" value="has" style="curved=1;startArrow=ERmandOne;startSize=10;;endArrow=ERzeroToMany;endSize=10;;exitX=0.5;exitY=1;entryX=1;entryY=0.27;rounded=0;" edge="1" parent="1" source="FRFj-RFBdM1ZMxKtOjA2-26" target="FRFj-RFBdM1ZMxKtOjA2-51">
          <mxGeometry relative="1" as="geometry">
            <Array as="points">
              <mxPoint x="609" y="944" />
            </Array>
          </mxGeometry>
        </mxCell>
        <mxCell id="FRFj-RFBdM1ZMxKtOjA2-133" value="receives" style="curved=1;startArrow=ERmandOne;startSize=10;;endArrow=ERzeroToMany;endSize=10;;exitX=1;exitY=0.73;entryX=0.57;entryY=0;rounded=0;" edge="1" parent="1" source="FRFj-RFBdM1ZMxKtOjA2-26" target="FRFj-RFBdM1ZMxKtOjA2-92">
          <mxGeometry relative="1" as="geometry">
            <Array as="points">
              <mxPoint x="920" y="944" />
            </Array>
          </mxGeometry>
        </mxCell>
        <mxCell id="FRFj-RFBdM1ZMxKtOjA2-134" value="is_paid_by" style="curved=1;startArrow=ERmandOne;startSize=10;;endArrow=ERzeroToMany;endSize=10;;exitX=0.5;exitY=1;entryX=0.5;entryY=0;rounded=0;" edge="1" parent="1" source="FRFj-RFBdM1ZMxKtOjA2-51" target="FRFj-RFBdM1ZMxKtOjA2-76">
          <mxGeometry relative="1" as="geometry">
            <Array as="points" />
          </mxGeometry>
        </mxCell>
      </root>
    </mxGraphModel>
  </diagram>
</mxfile>
